<svg width="127.840625px" height="45.8px" xmlns="http://www.w3.org/2000/svg" viewBox="186.0796875 52.1 127.840625 45.8" style="background: rgba(0, 0, 0, 0);" preserveAspectRatio="xMidYMid"><defs><filter id="editing-hole" x="-100%" y="-100%" width="300%" height="300%"><feFlood flood-color="#cccccc" result="black"></feFlood><feMorphology operator="dilate" radius="2" in="SourceGraphic" result="erode"></feMorphology><feGaussianBlur in="erode" stdDeviation="4" result="blur"></feGaussianBlur><feOffset in="blur" dx="2" dy="2" result="offset"></feOffset><feComposite operator="atop" in="offset" in2="black" result="merge"></feComposite><feComposite operator="in" in="merge" in2="SourceGraphic" result="inner-shadow"></feComposite></filter></defs><g filter="url(#editing-hole)"><g transform="translate(210.17001330852509, 80.4350037574768)"><path d="M6.50-5.68L6.50-5.68L6.50-5.68Q6.84-5.64 7.22-5.46L7.22-5.46L7.22-5.46Q7.60-5.29 7.93-4.97L7.93-4.97L7.93-4.97Q8.26-4.64 8.48-4.18L8.48-4.18L8.48-4.18Q8.70-3.72 8.70-3.12L8.70-3.12L8.70-3.12Q8.70-2.39 8.48-1.86L8.48-1.86L8.48-1.86Q8.26-1.33 7.93-0.99L7.93-0.99L7.93-0.99Q7.60-0.64 7.21-0.45L7.21-0.45L7.21-0.45Q6.83-0.25 6.47-0.15L6.47-0.15L6.47-0.15Q6.11-0.04 5.83-0.02L5.83-0.02L5.83-0.02Q5.55 0 5.46 0L5.46 0L3.76 0L3.76-1.29L5.36-1.29L5.36-1.29Q6.14-1.29 6.58-1.79L6.58-1.79L6.58-1.79Q7.02-2.29 7.02-3.12L7.02-3.12L7.02-3.12Q7.02-3.91 6.56-4.45L6.56-4.45L6.56-4.45Q6.11-5.00 5.23-5.00L5.23-5.00L3.76-5.00L3.76-6.18L4.47-6.18L4.47-6.18Q4.79-6.18 5.13-6.20L5.13-6.20L5.13-6.20Q5.46-6.21 5.76-6.36L5.76-6.36L5.76-6.36Q6.05-6.50 6.23-6.86L6.23-6.86L6.23-6.86Q6.42-7.21 6.42-7.87L6.42-7.87L6.42-7.87Q6.42-8.13 6.34-8.42L6.34-8.42L6.34-8.42Q6.27-8.70 6.05-8.94L6.05-8.94L6.05-8.94Q5.83-9.17 5.42-9.32L5.42-9.32L5.42-9.32Q5.01-9.46 4.34-9.46L4.34-9.46L3.76-9.46L3.76-10.80L4.51-10.80L4.51-10.80Q5.20-10.80 5.84-10.63L5.84-10.63L5.84-10.63Q6.49-10.47 6.99-10.12L6.99-10.12L6.99-10.12Q7.49-9.77 7.78-9.21L7.78-9.21L7.78-9.21Q8.07-8.64 8.07-7.87L8.07-7.87L8.07-7.87Q8.07-7.41 7.92-7.04L7.92-7.04L7.92-7.04Q7.78-6.67 7.56-6.39L7.56-6.39L7.56-6.39Q7.34-6.11 7.05-5.93L7.05-5.93L7.05-5.93Q6.77-5.74 6.50-5.68ZM1.41 0L1.41-10.80L3.16-10.80L3.16 0L1.41 0ZM14.93-6.96L14.93-8.33L14.93-8.33Q15.72-8.26 16.35-7.91L16.35-7.91L16.35-7.91Q16.99-7.56 17.45-7.00L17.45-7.00L17.45-7.00Q17.90-6.45 18.14-5.73L18.14-5.73L18.14-5.73Q18.38-5.01 18.38-4.23L18.38-4.23L18.38-4.23Q18.38-3.88 18.34-3.53L18.34-3.53L13.32-3.53L13.32-4.82L16.70-4.82L16.70-4.82Q16.70-5.20 16.57-5.55L16.57-5.55L16.57-5.55Q16.45-5.90 16.21-6.20L16.21-6.20L16.21-6.20Q15.97-6.50 15.64-6.71L15.64-6.71L15.64-6.71Q15.32-6.91 14.93-6.96L14.93-6.96ZM14.87-1.38L14.87-1.38L14.87-1.38Q15.03-1.38 15.27-1.41L15.27-1.41L15.27-1.41Q15.51-1.45 15.78-1.55L15.78-1.55L15.78-1.55Q16.05-1.64 16.33-1.79L16.33-1.79L16.33-1.79Q16.60-1.93 16.80-2.14L16.80-2.14L17.45-1.16L17.45-1.16Q16.96-0.56 16.32-0.25L16.32-0.25L16.32-0.25Q15.67 0.06 14.68 0.06L14.68 0.06L14.68 0.06Q13.87 0.06 13.17-0.27L13.17-0.27L13.17-0.27Q12.47-0.60 11.97-1.17L11.97-1.17L11.97-1.17Q11.47-1.74 11.18-2.50L11.18-2.50L11.18-2.50Q10.88-3.27 10.88-4.15L10.88-4.15L10.88-4.15Q10.88-4.98 11.15-5.73L11.15-5.73L11.15-5.73Q11.43-6.47 11.89-7.04L11.89-7.04L11.89-7.04Q12.36-7.60 12.99-7.95L12.99-7.95L12.99-7.95Q13.61-8.31 14.33-8.35L14.33-8.35L14.33-6.94L14.33-6.94Q13.78-6.84 13.43-6.50L13.43-6.50L13.43-6.50Q13.08-6.17 12.88-5.73L12.88-5.73L12.88-5.73Q12.69-5.30 12.60-4.85L12.60-4.85L12.60-4.85Q12.52-4.39 12.52-4.07L12.52-4.07L12.52-4.07Q12.52-3.50 12.66-3.01L12.66-3.01L12.66-3.01Q12.80-2.52 13.10-2.16L13.10-2.16L13.10-2.16Q13.39-1.80 13.82-1.59L13.82-1.59L13.82-1.59Q14.25-1.38 14.87-1.38ZM20.63-5.90L20.63-5.90L20.63-5.90Q20.63-6.46 20.83-6.91L20.83-6.91L20.83-6.91Q21.04-7.35 21.40-7.67L21.40-7.67L21.40-7.67Q21.77-7.98 22.23-8.17L22.23-8.17L22.23-8.17Q22.69-8.35 23.19-8.39L23.19-8.39L23.19-6.93L23.19-6.93Q22.81-6.86 22.60-6.62L22.60-6.62L22.60-6.62Q22.38-6.39 22.38-5.96L22.38-5.96L22.38-5.96Q22.38-5.61 22.61-5.40L22.61-5.40L22.61-5.40Q22.84-5.19 23.19-5.02L23.19-5.02L23.19-3.46L23.19-3.46Q22.94-3.53 22.68-3.63L22.68-3.63L22.68-3.63Q22.43-3.72 22.18-3.84L22.18-3.84L22.18-3.84Q21.40-4.25 21.01-4.70L21.01-4.70L21.01-4.70Q20.63-5.16 20.63-5.90ZM26.09-7.73L25.52-6.52L25.52-6.52Q25.12-6.72 24.68-6.83L24.68-6.83L24.68-6.83Q24.23-6.93 23.79-6.96L23.79-6.96L23.79-8.41L23.79-8.41Q24.45-8.38 25.00-8.23L25.00-8.23L25.00-8.23Q25.56-8.07 26.09-7.73L26.09-7.73ZM20.65-0.66L21.40-1.85L21.40-1.85Q21.69-1.64 22.10-1.46L22.10-1.46L22.10-1.46Q22.50-1.29 23.12-1.29L23.12-1.29L23.19-1.29L23.19 0.07L23.19 0.07Q22.82 0.07 22.51 0.05L22.51 0.05L22.51 0.05Q22.21 0.03 21.91-0.05L21.91-0.05L21.91-0.05Q21.61-0.13 21.30-0.28L21.30-0.28L21.30-0.28Q20.99-0.42 20.65-0.66L20.65-0.66ZM23.79-3.24L23.79-4.79L23.79-4.79Q24.23-4.64 24.68-4.47L24.68-4.47L24.68-4.47Q25.14-4.29 25.51-4.03L25.51-4.03L25.51-4.03Q25.88-3.76 26.13-3.38L26.13-3.38L26.13-3.38Q26.37-2.99 26.37-2.40L26.37-2.40L26.37-2.40Q26.37-1.83 26.16-1.41L26.16-1.41L26.16-1.41Q25.96-0.98 25.61-0.67L25.61-0.67L25.61-0.67Q25.27-0.37 24.80-0.19L24.80-0.19L24.80-0.19Q24.33-0.01 23.79 0.04L23.79 0.04L23.79-1.35L23.79-1.35Q24.29-1.44 24.56-1.66L24.56-1.66L24.56-1.66Q24.83-1.89 24.83-2.27L24.83-2.27L24.83-2.27Q24.83-2.65 24.53-2.86L24.53-2.86L24.53-2.86Q24.23-3.08 23.79-3.24L23.79-3.24ZM31.03-7.06L31.03-2.50L31.03-2.50Q31.03-2.01 31.16-1.73L31.16-1.73L31.16-1.73Q31.29-1.45 31.53-1.30L31.53-1.30L31.53-1.30Q31.77-1.16 32.07-1.12L32.07-1.12L32.07-1.12Q32.37-1.08 32.71-1.08L32.71-1.08L32.71 0L32.71 0Q32.52 0.03 32.33 0.04L32.33 0.04L32.33 0.04Q32.17 0.06 31.94 0.07L31.94 0.07L31.94 0.07Q31.71 0.07 31.49 0.07L31.49 0.07L31.49 0.07Q31.27 0.07 31.05 0.06L31.05 0.06L31.05 0.06Q30.82 0.04 30.66 0.01L30.66 0.01L30.66 0.01Q30.16-0.07 29.88-0.42L29.88-0.42L29.88-0.42Q29.60-0.76 29.47-1.18L29.47-1.18L29.47-1.18Q29.33-1.60 29.29-1.99L29.29-1.99L29.29-1.99Q29.25-2.39 29.25-2.61L29.25-2.61L29.25-7.06L28.17-7.06L28.17-8.26L29.25-8.26L29.25-10.61L31.03-10.61L31.03-8.26L32.34-8.26L32.34-7.06L31.03-7.06ZM38.86 0L38.86-10.80L40.62-10.80L40.62 0L38.86 0ZM43.73-4.25L46.19 0L44.33 0L42.29-3.91L42.29-3.91Q42.25-3.91 42.19-3.90L42.19-3.90L42.19-3.90Q42.14-3.90 42.04-3.90L42.04-3.90L42.04-3.90Q41.94-3.90 41.74-3.90L41.74-3.90L41.74-3.90Q41.54-3.90 41.22-3.90L41.22-3.90L41.22-5.19L42.22-5.19L42.22-5.19Q42.54-5.19 42.86-5.30L42.86-5.30L42.86-5.30Q43.18-5.41 43.45-5.65L43.45-5.65L43.45-5.65Q43.71-5.90 43.87-6.35L43.87-6.35L43.87-6.35Q44.03-6.80 44.03-7.46L44.03-7.46L44.03-7.46Q44.03-7.72 43.96-8.06L43.96-8.06L43.96-8.06Q43.89-8.41 43.66-8.72L43.66-8.72L43.66-8.72Q43.43-9.04 43.02-9.25L43.02-9.25L43.02-9.25Q42.61-9.46 41.94-9.46L41.94-9.46L41.22-9.46L41.22-10.80L41.97-10.80L41.97-10.80Q42.66-10.80 43.33-10.58L43.33-10.58L43.33-10.58Q44.00-10.36 44.54-9.92L44.54-9.92L44.54-9.92Q45.07-9.48 45.40-8.85L45.40-8.85L45.40-8.85Q45.73-8.23 45.73-7.46L45.73-7.46L45.73-7.46Q45.73-6.28 45.19-5.46L45.19-5.46L45.19-5.46Q44.65-4.64 43.73-4.25L43.73-4.25ZM52.31-6.96L52.31-8.33L52.31-8.33Q53.10-8.26 53.74-7.91L53.74-7.91L53.74-7.91Q54.38-7.56 54.83-7.00L54.83-7.00L54.83-7.00Q55.28-6.45 55.52-5.73L55.52-5.73L55.52-5.73Q55.77-5.01 55.77-4.23L55.77-4.23L55.77-4.23Q55.77-3.88 55.72-3.53L55.72-3.53L50.70-3.53L50.70-4.82L54.08-4.82L54.08-4.82Q54.08-5.20 53.96-5.55L53.96-5.55L53.96-5.55Q53.83-5.90 53.59-6.20L53.59-6.20L53.59-6.20Q53.35-6.50 53.03-6.71L53.03-6.71L53.03-6.71Q52.71-6.91 52.31-6.96L52.31-6.96ZM52.25-1.38L52.25-1.38L52.25-1.38Q52.41-1.38 52.65-1.41L52.65-1.41L52.65-1.41Q52.90-1.45 53.17-1.55L53.17-1.55L53.17-1.55Q53.44-1.64 53.71-1.79L53.71-1.79L53.71-1.79Q53.98-1.93 54.18-2.14L54.18-2.14L54.83-1.16L54.83-1.16Q54.35-0.56 53.70-0.25L53.70-0.25L53.70-0.25Q53.06 0.06 52.06 0.06L52.06 0.06L52.06 0.06Q51.25 0.06 50.55-0.27L50.55-0.27L50.55-0.27Q49.85-0.60 49.35-1.17L49.35-1.17L49.35-1.17Q48.85-1.74 48.56-2.50L48.56-2.50L48.56-2.50Q48.27-3.27 48.27-4.15L48.27-4.15L48.27-4.15Q48.27-4.98 48.54-5.73L48.54-5.73L48.54-5.73Q48.81-6.47 49.28-7.04L49.28-7.04L49.28-7.04Q49.75-7.60 50.37-7.95L50.37-7.95L50.37-7.95Q50.99-8.31 51.71-8.35L51.71-8.35L51.71-6.94L51.71-6.94Q51.17-6.84 50.82-6.50L50.82-6.50L50.82-6.50Q50.46-6.17 50.27-5.73L50.27-5.73L50.27-5.73Q50.07-5.30 49.99-4.85L49.99-4.85L49.99-4.85Q49.91-4.39 49.91-4.07L49.91-4.07L49.91-4.07Q49.91-3.50 50.05-3.01L50.05-3.01L50.05-3.01Q50.19-2.52 50.48-2.16L50.48-2.16L50.48-2.16Q50.77-1.80 51.20-1.59L51.20-1.59L51.20-1.59Q51.64-1.38 52.25-1.38ZM60.56-7.06L60.56-2.50L60.56-2.50Q60.56-2.01 60.69-1.73L60.69-1.73L60.69-1.73Q60.82-1.45 61.06-1.30L61.06-1.30L61.06-1.30Q61.30-1.16 61.60-1.12L61.60-1.12L61.60-1.12Q61.90-1.08 62.24-1.08L62.24-1.08L62.24 0L62.24 0Q62.05 0.03 61.86 0.04L61.86 0.04L61.86 0.04Q61.70 0.06 61.47 0.07L61.47 0.07L61.47 0.07Q61.25 0.07 61.03 0.07L61.03 0.07L61.03 0.07Q60.81 0.07 60.58 0.06L60.58 0.06L60.58 0.06Q60.35 0.04 60.19 0.01L60.19 0.01L60.19 0.01Q59.69-0.07 59.41-0.42L59.41-0.42L59.41-0.42Q59.14-0.76 59.00-1.18L59.00-1.18L59.00-1.18Q58.86-1.60 58.82-1.99L58.82-1.99L58.82-1.99Q58.78-2.39 58.78-2.61L58.78-2.61L58.78-7.06L57.70-7.06L57.70-8.26L58.78-8.26L58.78-10.61L60.56-10.61L60.56-8.26L61.88-8.26L61.88-7.06L60.56-7.06ZM64.32-8.26L65.90-8.26L66.09-7.41L66.09-2.93L66.09-2.90L66.09 0L64.32 0L64.32-8.26ZM66.69-6.40L66.69-7.90L66.69-7.90Q67.06-8.10 67.57-8.21L67.57-8.21L67.57-8.21Q68.09-8.32 68.96-8.32L68.96-8.32L68.96-6.47L68.96-6.47Q68.55-6.59 67.97-6.61L67.97-6.61L67.97-6.61Q67.65-6.61 67.32-6.56L67.32-6.56L67.32-6.56Q66.99-6.50 66.69-6.40L66.69-6.40ZM74.74-6.93L74.74-8.31L74.74-8.31Q75.54-8.26 76.20-7.92L76.20-7.92L76.20-7.92Q76.86-7.57 77.31-7.01L77.31-7.01L77.31-7.01Q77.75-6.45 78.00-5.70L78.00-5.70L78.00-5.70Q78.25-4.95 78.25-4.10L78.25-4.10L78.25-4.10Q78.25-3.25 78.00-2.51L78.00-2.51L78.00-2.51Q77.74-1.77 77.29-1.22L77.29-1.22L77.29-1.22Q76.83-0.67 76.17-0.34L76.17-0.34L76.17-0.34Q75.51 0 74.74 0.06L74.74 0.06L74.74-1.35L74.74-1.35Q75.47-1.51 75.93-2.27L75.93-2.27L75.93-2.27Q76.39-3.03 76.39-4.10L76.39-4.10L76.39-4.10Q76.39-4.64 76.28-5.12L76.28-5.12L76.28-5.12Q76.17-5.60 75.95-5.98L75.95-5.98L75.95-5.98Q75.73-6.36 75.42-6.61L75.42-6.61L75.42-6.61Q75.12-6.86 74.74-6.93L74.74-6.93ZM70.65-4.13L70.65-4.13L70.65-4.13Q70.65-4.98 70.90-5.71L70.90-5.71L70.90-5.71Q71.15-6.45 71.61-6.99L71.61-6.99L71.61-6.99Q72.07-7.54 72.71-7.88L72.71-7.88L72.71-7.88Q73.36-8.22 74.14-8.29L74.14-8.29L74.14-6.93L74.14-6.93Q73.40-6.77 72.96-6.01L72.96-6.01L72.96-6.01Q72.52-5.24 72.52-4.17L72.52-4.17L72.52-4.17Q72.52-3.63 72.63-3.15L72.63-3.15L72.63-3.15Q72.74-2.67 72.95-2.29L72.95-2.29L72.95-2.29Q73.15-1.90 73.45-1.66L73.45-1.66L73.45-1.66Q73.75-1.41 74.14-1.35L74.14-1.35L74.14 0.06L74.14 0.06Q73.33 0 72.69-0.34L72.69-0.34L72.69-0.34Q72.04-0.69 71.59-1.25L71.59-1.25L71.59-1.25Q71.13-1.80 70.89-2.55L70.89-2.55L70.89-2.55Q70.65-3.30 70.65-4.13Z" fill="#ffffff"></path></g></g><style>text {
  font-size: 64px;
  font-family: Arial Black;
  dominant-baseline: central;
  text-anchor: middle;
}</style></svg>